<svg width="581" height="442" fill="none" xmlns="http://www.w3.org/2000/svg"><rect width="581" height="442" rx="14.034" fill="#010104"/><g clip-path="url(#a)"><path d="M38.863 183.603a7.424 7.424 0 0 0 7.425 7.425h82.42a7.423 7.423 0 0 0 6.435-11.125 7.42 7.42 0 0 0-3.885-3.266c.007-.154.024-.304.024-.459a10.775 10.775 0 0 0-7.595-10.291 14.578 14.578 0 0 0-8.858-9.401 14.564 14.564 0 0 0-12.848 1.332 14.57 14.57 0 0 0-23.938-8.276 14.571 14.571 0 0 0-4.797 8.802 14.568 14.568 0 0 0-16.76 7.096 10.756 10.756 0 0 0-10.198 10.738 7.427 7.427 0 0 0-7.425 7.425Z" stroke="#A3A3A3" stroke-width=".877" stroke-miterlimit="10"/><path d="M448.257 85.882H124.832c-7.853 0-14.219 6.366-14.219 14.219v220.518c0 7.853 6.366 14.219 14.219 14.219h323.425c7.853 0 14.219-6.366 14.219-14.219V100.101c0-7.853-6.366-14.22-14.219-14.22ZM278.836 348.449h196.736c4.96 0 9.874-.944 14.48-2.783l4.737-1.89v-8.938H62.883v8.938l4.737 1.89a39.054 39.054 0 0 0 14.48 2.783h196.736Z" fill="#010104" stroke="#303033" stroke-width=".877" stroke-miterlimit="10"/><path d="M449.294 101.177H123.795v218.365h325.499V101.177Z" fill="#151518"/><path d="M449.294 101.177H123.795v218.365h325.499V101.177Z" fill="url(#b)"/><g opacity=".7" fill="#fff"><path d="M134.603 110.641a.601.601 0 1 0 .001-1.203.601.601 0 0 0-.001 1.203ZM147.844 110.641a.601.601 0 1 0 .001-1.203.601.601 0 0 0-.001 1.203ZM161.091 110.641a.602.602 0 1 0 0-1.204.602.602 0 0 0 0 1.204ZM174.332 110.641a.601.601 0 1 0 .001-1.203.601.601 0 0 0-.001 1.203ZM187.576 110.641a.602.602 0 1 0 0-1.204.602.602 0 0 0 0 1.204ZM200.819 110.641a.602.602 0 1 0 0-1.204.602.602 0 0 0 0 1.204ZM214.063 110.641a.602.602 0 1 0 0-1.204.602.602 0 0 0 0 1.204ZM227.307 110.641a.601.601 0 1 0 .001-1.203.601.601 0 0 0-.001 1.203ZM240.549 110.641a.602.602 0 1 0 0-1.204.602.602 0 0 0 0 1.204ZM253.793 110.641a.602.602 0 1 0 0-1.204.602.602 0 0 0 0 1.204ZM267.037 110.641a.601.601 0 1 0 .001-1.203.601.601 0 0 0-.001 1.203ZM280.279 110.641a.601.601 0 1 0 .001-1.203.601.601 0 0 0-.001 1.203ZM293.522 110.641a.601.601 0 1 0 .001-1.203.601.601 0 0 0-.001 1.203ZM306.765 110.641a.601.601 0 1 0 .001-1.203.601.601 0 0 0-.001 1.203ZM320.01 110.641a.601.601 0 1 0 .001-1.203.601.601 0 0 0-.001 1.203ZM333.252 110.641a.601.601 0 1 0 .001-1.203.601.601 0 0 0-.001 1.203ZM346.495 110.641a.601.601 0 1 0 .001-1.203.601.601 0 0 0-.001 1.203ZM359.737 110.641a.602.602 0 1 0 0-1.204.602.602 0 0 0 0 1.204ZM372.983 110.641a.602.602 0 1 0 0-1.204.602.602 0 0 0 0 1.204ZM386.225 110.641a.601.601 0 1 0 .001-1.203.601.601 0 0 0-.001 1.203ZM399.468 110.641a.601.601 0 1 0 .001-1.203.601.601 0 0 0-.001 1.203ZM412.712 110.641a.602.602 0 1 0 0-1.204.602.602 0 0 0 0 1.204ZM425.955 110.641a.602.602 0 1 0 0-1.204.602.602 0 0 0 0 1.204ZM439.199 110.641a.602.602 0 1 0 0-1.204.602.602 0 0 0 0 1.204ZM134.603 123.884a.601.601 0 1 0 .001-1.203.601.601 0 0 0-.001 1.203ZM147.844 123.884a.601.601 0 1 0 .001-1.203.601.601 0 0 0-.001 1.203ZM161.091 123.884a.602.602 0 1 0 0-1.204.602.602 0 0 0 0 1.204ZM174.332 123.884a.601.601 0 1 0 .001-1.203.601.601 0 0 0-.001 1.203ZM187.576 123.884a.602.602 0 1 0 0-1.204.602.602 0 0 0 0 1.204ZM200.819 123.884a.602.602 0 1 0 0-1.204.602.602 0 0 0 0 1.204ZM214.063 123.884a.602.602 0 1 0 0-1.204.602.602 0 0 0 0 1.204ZM227.307 123.884a.601.601 0 1 0 .001-1.203.601.601 0 0 0-.001 1.203ZM240.549 123.884a.602.602 0 1 0 0-1.204.602.602 0 0 0 0 1.204ZM253.793 123.884a.602.602 0 1 0 0-1.204.602.602 0 0 0 0 1.204ZM267.037 123.884a.601.601 0 1 0 .001-1.203.601.601 0 0 0-.001 1.203ZM280.279 123.884a.601.601 0 1 0 .001-1.203.601.601 0 0 0-.001 1.203ZM293.522 123.884a.601.601 0 1 0 .001-1.203.601.601 0 0 0-.001 1.203ZM306.765 123.884a.601.601 0 1 0 .001-1.203.601.601 0 0 0-.001 1.203ZM320.01 123.884a.601.601 0 1 0 .001-1.203.601.601 0 0 0-.001 1.203ZM333.252 123.884a.601.601 0 1 0 .001-1.203.601.601 0 0 0-.001 1.203ZM346.495 123.884a.601.601 0 1 0 .001-1.203.601.601 0 0 0-.001 1.203ZM359.737 123.884a.602.602 0 1 0 0-1.204.602.602 0 0 0 0 1.204ZM372.983 123.884a.602.602 0 1 0 0-1.204.602.602 0 0 0 0 1.204ZM386.225 123.884a.601.601 0 1 0 .001-1.203.601.601 0 0 0-.001 1.203ZM399.468 123.884a.601.601 0 1 0 .001-1.203.601.601 0 0 0-.001 1.203ZM412.712 123.884a.602.602 0 1 0 0-1.204.602.602 0 0 0 0 1.204ZM425.955 123.884a.602.602 0 1 0 0-1.204.602.602 0 0 0 0 1.204ZM439.199 123.884a.602.602 0 1 0 0-1.204.602.602 0 0 0 0 1.204ZM134.603 137.133a.601.601 0 1 0 .001-1.203.601.601 0 0 0-.001 1.203ZM147.844 137.133a.601.601 0 1 0 .001-1.203.601.601 0 0 0-.001 1.203ZM161.091 137.133a.602.602 0 1 0 0-1.204.602.602 0 0 0 0 1.204ZM174.332 137.133a.601.601 0 1 0 .001-1.203.601.601 0 0 0-.001 1.203ZM187.576 137.133a.602.602 0 1 0 0-1.204.602.602 0 0 0 0 1.204ZM200.819 137.133a.602.602 0 1 0 0-1.204.602.602 0 0 0 0 1.204ZM214.063 137.133a.602.602 0 1 0 0-1.204.602.602 0 0 0 0 1.204ZM227.307 137.133a.601.601 0 1 0 .001-1.203.601.601 0 0 0-.001 1.203ZM240.549 137.133a.602.602 0 1 0 0-1.204.602.602 0 0 0 0 1.204ZM253.793 137.133a.602.602 0 1 0 0-1.204.602.602 0 0 0 0 1.204ZM267.037 137.133a.601.601 0 1 0 .001-1.203.601.601 0 0 0-.001 1.203ZM280.279 137.133a.601.601 0 1 0 .001-1.203.601.601 0 0 0-.001 1.203ZM293.522 137.133a.601.601 0 1 0 .001-1.203.601.601 0 0 0-.001 1.203ZM306.765 137.133a.601.601 0 1 0 .001-1.203.601.601 0 0 0-.001 1.203ZM320.01 137.133a.601.601 0 1 0 .001-1.203.601.601 0 0 0-.001 1.203ZM333.252 137.133a.601.601 0 1 0 .001-1.203.601.601 0 0 0-.001 1.203ZM346.495 137.133a.601.601 0 1 0 .001-1.203.601.601 0 0 0-.001 1.203ZM359.737 137.133a.602.602 0 1 0 0-1.204.602.602 0 0 0 0 1.204ZM372.983 137.133a.602.602 0 1 0 0-1.204.602.602 0 0 0 0 1.204ZM386.225 137.133a.601.601 0 1 0 .001-1.203.601.601 0 0 0-.001 1.203ZM399.468 137.133a.601.601 0 1 0 .001-1.203.601.601 0 0 0-.001 1.203ZM412.712 137.133a.602.602 0 1 0 0-1.204.602.602 0 0 0 0 1.204ZM425.955 137.133a.602.602 0 1 0 0-1.204.602.602 0 0 0 0 1.204ZM439.199 137.133a.602.602 0 1 0 0-1.204.602.602 0 0 0 0 1.204ZM134.603 150.375a.601.601 0 1 0 .001-1.203.601.601 0 0 0-.001 1.203ZM147.844 150.375a.601.601 0 1 0 .001-1.203.601.601 0 0 0-.001 1.203ZM161.091 150.375a.602.602 0 1 0 0-1.204.602.602 0 0 0 0 1.204ZM174.332 150.375a.601.601 0 1 0 .001-1.203.601.601 0 0 0-.001 1.203ZM187.576 150.375a.602.602 0 1 0 0-1.204.602.602 0 0 0 0 1.204ZM200.819 150.375a.602.602 0 1 0 0-1.204.602.602 0 0 0 0 1.204ZM214.063 150.375a.602.602 0 1 0 0-1.204.602.602 0 0 0 0 1.204ZM227.307 150.375a.601.601 0 1 0 .001-1.203.601.601 0 0 0-.001 1.203ZM240.549 150.375a.602.602 0 1 0 0-1.204.602.602 0 0 0 0 1.204ZM253.793 150.375a.602.602 0 1 0 0-1.204.602.602 0 0 0 0 1.204ZM267.037 150.375a.601.601 0 1 0 .001-1.203.601.601 0 0 0-.001 1.203ZM280.279 150.375a.601.601 0 1 0 .001-1.203.601.601 0 0 0-.001 1.203ZM293.522 150.375a.601.601 0 1 0 .001-1.203.601.601 0 0 0-.001 1.203ZM306.765 150.375a.601.601 0 1 0 .001-1.203.601.601 0 0 0-.001 1.203ZM320.01 150.375a.601.601 0 1 0 .001-1.203.601.601 0 0 0-.001 1.203ZM333.252 150.375a.601.601 0 1 0 .001-1.203.601.601 0 0 0-.001 1.203ZM346.495 150.375a.601.601 0 1 0 .001-1.203.601.601 0 0 0-.001 1.203ZM359.737 150.375a.602.602 0 1 0 0-1.204.602.602 0 0 0 0 1.204ZM372.983 150.375a.602.602 0 1 0 0-1.204.602.602 0 0 0 0 1.204ZM386.225 150.375a.601.601 0 1 0 .001-1.203.601.601 0 0 0-.001 1.203ZM399.468 150.375a.601.601 0 1 0 .001-1.203.601.601 0 0 0-.001 1.203ZM412.712 150.375a.602.602 0 1 0 0-1.204.602.602 0 0 0 0 1.204ZM425.955 150.375a.602.602 0 1 0 0-1.204.602.602 0 0 0 0 1.204ZM439.199 150.375a.602.602 0 1 0 0-1.204.602.602 0 0 0 0 1.204ZM134.603 163.625a.602.602 0 1 0 0-1.204.602.602 0 0 0 0 1.204ZM147.844 163.625a.602.602 0 1 0 0-1.204.602.602 0 0 0 0 1.204ZM161.091 163.625a.603.603 0 1 0-.001-1.205.603.603 0 0 0 .001 1.205ZM174.332 163.625a.602.602 0 1 0 0-1.204.602.602 0 0 0 0 1.204ZM187.576 163.625a.603.603 0 1 0-.001-1.205.603.603 0 0 0 .001 1.205ZM200.819 163.625a.603.603 0 1 0-.001-1.205.603.603 0 0 0 .001 1.205ZM214.063 163.625a.603.603 0 1 0-.001-1.205.603.603 0 0 0 .001 1.205ZM227.307 163.625a.602.602 0 1 0 0-1.204.602.602 0 0 0 0 1.204ZM240.549 163.625a.603.603 0 1 0-.001-1.205.603.603 0 0 0 .001 1.205ZM253.793 163.625a.603.603 0 1 0-.001-1.205.603.603 0 0 0 .001 1.205ZM267.037 163.625a.602.602 0 1 0 0-1.204.602.602 0 0 0 0 1.204ZM280.279 163.625a.602.602 0 1 0 0-1.204.602.602 0 0 0 0 1.204ZM293.522 163.625a.602.602 0 1 0 0-1.204.602.602 0 0 0 0 1.204ZM306.765 163.625a.602.602 0 1 0 0-1.204.602.602 0 0 0 0 1.204ZM320.01 163.625a.602.602 0 1 0 0-1.204.602.602 0 0 0 0 1.204ZM333.252 163.625a.602.602 0 1 0 0-1.204.602.602 0 0 0 0 1.204ZM346.495 163.625a.602.602 0 1 0 0-1.204.602.602 0 0 0 0 1.204ZM359.737 163.625a.603.603 0 1 0-.001-1.205.603.603 0 0 0 .001 1.205ZM372.983 163.625a.603.603 0 1 0-.001-1.205.603.603 0 0 0 .001 1.205ZM386.225 163.625a.602.602 0 1 0 0-1.204.602.602 0 0 0 0 1.204ZM399.468 163.625a.602.602 0 1 0 0-1.204.602.602 0 0 0 0 1.204ZM412.712 163.625a.603.603 0 1 0-.001-1.205.603.603 0 0 0 .001 1.205ZM425.955 163.625a.603.603 0 1 0-.001-1.205.603.603 0 0 0 .001 1.205ZM439.199 163.625a.603.603 0 1 0-.001-1.205.603.603 0 0 0 .001 1.205ZM134.603 176.848a.602.602 0 1 0 0-1.204.602.602 0 0 0 0 1.204ZM147.844 176.848a.602.602 0 1 0 0-1.204.602.602 0 0 0 0 1.204ZM161.091 176.848a.603.603 0 1 0-.001-1.205.603.603 0 0 0 .001 1.205ZM174.332 176.848a.602.602 0 1 0 0-1.204.602.602 0 0 0 0 1.204ZM187.576 176.848a.603.603 0 1 0-.001-1.205.603.603 0 0 0 .001 1.205ZM200.819 176.848a.603.603 0 1 0-.001-1.205.603.603 0 0 0 .001 1.205ZM214.063 176.848a.603.603 0 1 0-.001-1.205.603.603 0 0 0 .001 1.205ZM227.307 176.848a.602.602 0 1 0 0-1.204.602.602 0 0 0 0 1.204ZM240.549 176.848a.603.603 0 1 0-.001-1.205.603.603 0 0 0 .001 1.205ZM253.793 176.848a.603.603 0 1 0-.001-1.205.603.603 0 0 0 .001 1.205ZM267.037 176.848a.602.602 0 1 0 0-1.204.602.602 0 0 0 0 1.204ZM280.279 176.848a.602.602 0 1 0 0-1.204.602.602 0 0 0 0 1.204ZM293.522 176.848a.602.602 0 1 0 0-1.204.602.602 0 0 0 0 1.204ZM306.765 176.848a.602.602 0 1 0 0-1.204.602.602 0 0 0 0 1.204ZM320.01 176.848a.602.602 0 1 0 0-1.204.602.602 0 0 0 0 1.204ZM333.252 176.848a.602.602 0 1 0 0-1.204.602.602 0 0 0 0 1.204ZM346.495 176.848a.602.602 0 1 0 0-1.204.602.602 0 0 0 0 1.204ZM359.737 176.848a.603.603 0 1 0-.001-1.205.603.603 0 0 0 .001 1.205ZM372.983 176.848a.603.603 0 1 0-.001-1.205.603.603 0 0 0 .001 1.205ZM386.225 176.848a.602.602 0 1 0 0-1.204.602.602 0 0 0 0 1.204ZM399.468 176.848a.602.602 0 1 0 0-1.204.602.602 0 0 0 0 1.204ZM412.712 176.848a.603.603 0 1 0-.001-1.205.603.603 0 0 0 .001 1.205ZM425.955 176.848a.603.603 0 1 0-.001-1.205.603.603 0 0 0 .001 1.205ZM439.199 176.848a.603.603 0 1 0-.001-1.205.603.603 0 0 0 .001 1.205ZM134.603 190.09a.601.601 0 1 0 .001-1.203.601.601 0 0 0-.001 1.203ZM147.844 190.09a.601.601 0 1 0 .001-1.203.601.601 0 0 0-.001 1.203ZM161.091 190.09a.602.602 0 1 0 0-1.204.602.602 0 0 0 0 1.204ZM174.332 190.09a.601.601 0 1 0 .001-1.203.601.601 0 0 0-.001 1.203ZM187.576 190.09a.602.602 0 1 0 0-1.204.602.602 0 0 0 0 1.204ZM200.819 190.09a.602.602 0 1 0 0-1.204.602.602 0 0 0 0 1.204ZM214.063 190.09a.602.602 0 1 0 0-1.204.602.602 0 0 0 0 1.204ZM227.307 190.09a.601.601 0 1 0 .001-1.203.601.601 0 0 0-.001 1.203ZM240.549 190.09a.602.602 0 1 0 0-1.204.602.602 0 0 0 0 1.204ZM253.793 190.09a.602.602 0 1 0 0-1.204.602.602 0 0 0 0 1.204ZM267.037 190.09a.601.601 0 1 0 .001-1.203.601.601 0 0 0-.001 1.203ZM280.279 190.09a.601.601 0 1 0 .001-1.203.601.601 0 0 0-.001 1.203ZM293.522 190.09a.601.601 0 1 0 .001-1.203.601.601 0 0 0-.001 1.203ZM306.765 190.09a.601.601 0 1 0 .001-1.203.601.601 0 0 0-.001 1.203ZM320.01 190.09a.601.601 0 1 0 .001-1.203.601.601 0 0 0-.001 1.203ZM333.252 190.09a.601.601 0 1 0 .001-1.203.601.601 0 0 0-.001 1.203ZM346.495 190.09a.601.601 0 1 0 .001-1.203.601.601 0 0 0-.001 1.203ZM359.737 190.09a.602.602 0 1 0 0-1.204.602.602 0 0 0 0 1.204ZM372.983 190.09a.602.602 0 1 0 0-1.204.602.602 0 0 0 0 1.204ZM386.225 190.09a.601.601 0 1 0 .001-1.203.601.601 0 0 0-.001 1.203ZM399.468 190.09a.601.601 0 1 0 .001-1.203.601.601 0 0 0-.001 1.203ZM412.712 190.09a.602.602 0 1 0 0-1.204.602.602 0 0 0 0 1.204ZM425.955 190.09a.602.602 0 1 0 0-1.204.602.602 0 0 0 0 1.204ZM439.199 190.09a.602.602 0 1 0 0-1.204.602.602 0 0 0 0 1.204ZM134.603 203.346a.602.602 0 1 0 0-1.204.602.602 0 0 0 0 1.204ZM147.844 203.346a.602.602 0 1 0 0-1.204.602.602 0 0 0 0 1.204ZM161.091 203.346a.603.603 0 1 0-.001-1.205.603.603 0 0 0 .001 1.205ZM174.332 203.346a.602.602 0 1 0 0-1.204.602.602 0 0 0 0 1.204ZM187.576 203.346a.603.603 0 1 0-.001-1.205.603.603 0 0 0 .001 1.205ZM200.819 203.346a.603.603 0 1 0-.001-1.205.603.603 0 0 0 .001 1.205ZM214.063 203.346a.603.603 0 1 0-.001-1.205.603.603 0 0 0 .001 1.205ZM227.307 203.346a.602.602 0 1 0 0-1.204.602.602 0 0 0 0 1.204ZM240.549 203.346a.603.603 0 1 0-.001-1.205.603.603 0 0 0 .001 1.205ZM253.793 203.346a.603.603 0 1 0-.001-1.205.603.603 0 0 0 .001 1.205ZM267.037 203.346a.602.602 0 1 0 0-1.204.602.602 0 0 0 0 1.204ZM280.279 203.346a.602.602 0 1 0 0-1.204.602.602 0 0 0 0 1.204ZM293.522 203.346a.602.602 0 1 0 0-1.204.602.602 0 0 0 0 1.204ZM306.765 203.346a.602.602 0 1 0 0-1.204.602.602 0 0 0 0 1.204ZM320.01 203.346a.602.602 0 1 0 0-1.204.602.602 0 0 0 0 1.204ZM333.252 203.346a.602.602 0 1 0 0-1.204.602.602 0 0 0 0 1.204ZM346.495 203.346a.602.602 0 1 0 0-1.204.602.602 0 0 0 0 1.204ZM359.737 203.346a.603.603 0 1 0-.001-1.205.603.603 0 0 0 .001 1.205ZM372.983 203.346a.603.603 0 1 0-.001-1.205.603.603 0 0 0 .001 1.205ZM386.225 203.346a.602.602 0 1 0 0-1.204.602.602 0 0 0 0 1.204ZM399.468 203.346a.602.602 0 1 0 0-1.204.602.602 0 0 0 0 1.204ZM412.712 203.346a.603.603 0 1 0-.001-1.205.603.603 0 0 0 .001 1.205ZM425.955 203.346a.603.603 0 1 0-.001-1.205.603.603 0 0 0 .001 1.205ZM439.199 203.346a.603.603 0 1 0-.001-1.205.603.603 0 0 0 .001 1.205ZM134.603 216.601a.602.602 0 1 0 0-1.204.602.602 0 0 0 0 1.204ZM147.844 216.601a.602.602 0 1 0 0-1.204.602.602 0 0 0 0 1.204ZM161.091 216.601a.603.603 0 1 0-.001-1.205.603.603 0 0 0 .001 1.205ZM174.332 216.601a.602.602 0 1 0 0-1.204.602.602 0 0 0 0 1.204ZM187.576 216.601a.603.603 0 1 0-.001-1.205.603.603 0 0 0 .001 1.205ZM200.819 216.601a.603.603 0 1 0-.001-1.205.603.603 0 0 0 .001 1.205ZM214.063 216.601a.603.603 0 1 0-.001-1.205.603.603 0 0 0 .001 1.205ZM227.307 216.601a.602.602 0 1 0 0-1.204.602.602 0 0 0 0 1.204ZM240.549 216.601a.603.603 0 1 0-.001-1.205.603.603 0 0 0 .001 1.205ZM253.793 216.601a.603.603 0 1 0-.001-1.205.603.603 0 0 0 .001 1.205ZM267.037 216.601a.602.602 0 1 0 0-1.204.602.602 0 0 0 0 1.204ZM280.279 216.601a.602.602 0 1 0 0-1.204.602.602 0 0 0 0 1.204ZM293.522 216.601a.602.602 0 1 0 0-1.204.602.602 0 0 0 0 1.204ZM306.765 216.601a.602.602 0 1 0 0-1.204.602.602 0 0 0 0 1.204ZM320.01 216.601a.602.602 0 1 0 0-1.204.602.602 0 0 0 0 1.204ZM333.252 216.601a.602.602 0 1 0 0-1.204.602.602 0 0 0 0 1.204ZM346.495 216.601a.602.602 0 1 0 0-1.204.602.602 0 0 0 0 1.204ZM359.737 216.601a.603.603 0 1 0-.001-1.205.603.603 0 0 0 .001 1.205ZM372.983 216.601a.603.603 0 1 0-.001-1.205.603.603 0 0 0 .001 1.205ZM386.225 216.601a.602.602 0 1 0 0-1.204.602.602 0 0 0 0 1.204ZM399.468 216.601a.602.602 0 1 0 0-1.204.602.602 0 0 0 0 1.204ZM412.712 216.601a.603.603 0 1 0-.001-1.205.603.603 0 0 0 .001 1.205ZM425.955 216.601a.603.603 0 1 0-.001-1.205.603.603 0 0 0 .001 1.205ZM439.199 216.601a.603.603 0 1 0-.001-1.205.603.603 0 0 0 .001 1.205ZM134.603 229.837a.601.601 0 1 0 .001-1.203.601.601 0 0 0-.001 1.203ZM147.844 229.837a.601.601 0 1 0 .001-1.203.601.601 0 0 0-.001 1.203ZM161.091 229.837a.602.602 0 1 0 0-1.204.602.602 0 0 0 0 1.204ZM174.332 229.837a.601.601 0 1 0 .001-1.203.601.601 0 0 0-.001 1.203ZM187.576 229.837a.602.602 0 1 0 0-1.204.602.602 0 0 0 0 1.204ZM200.819 229.837a.602.602 0 1 0 0-1.204.602.602 0 0 0 0 1.204ZM214.063 229.837a.602.602 0 1 0 0-1.204.602.602 0 0 0 0 1.204ZM227.307 229.837a.601.601 0 1 0 .001-1.203.601.601 0 0 0-.001 1.203ZM240.549 229.837a.602.602 0 1 0 0-1.204.602.602 0 0 0 0 1.204ZM253.793 229.837a.602.602 0 1 0 0-1.204.602.602 0 0 0 0 1.204ZM267.037 229.837a.601.601 0 1 0 .001-1.203.601.601 0 0 0-.001 1.203ZM280.279 229.837a.601.601 0 1 0 .001-1.203.601.601 0 0 0-.001 1.203ZM293.522 229.837a.601.601 0 1 0 .001-1.203.601.601 0 0 0-.001 1.203ZM306.765 229.837a.601.601 0 1 0 .001-1.203.601.601 0 0 0-.001 1.203ZM320.01 229.837a.601.601 0 1 0 .001-1.203.601.601 0 0 0-.001 1.203ZM333.252 229.837a.601.601 0 1 0 .001-1.203.601.601 0 0 0-.001 1.203ZM346.495 229.837a.601.601 0 1 0 .001-1.203.601.601 0 0 0-.001 1.203ZM359.737 229.837a.602.602 0 1 0 0-1.204.602.602 0 0 0 0 1.204ZM372.983 229.837a.602.602 0 1 0 0-1.204.602.602 0 0 0 0 1.204ZM386.225 229.837a.601.601 0 1 0 .001-1.203.601.601 0 0 0-.001 1.203ZM399.468 229.837a.601.601 0 1 0 .001-1.203.601.601 0 0 0-.001 1.203ZM412.712 229.837a.602.602 0 1 0 0-1.204.602.602 0 0 0 0 1.204ZM425.955 229.837a.602.602 0 1 0 0-1.204.602.602 0 0 0 0 1.204ZM439.199 229.837a.602.602 0 1 0 0-1.204.602.602 0 0 0 0 1.204ZM134.603 243.073a.602.602 0 1 0 0-1.204.602.602 0 0 0 0 1.204ZM147.844 243.073a.602.602 0 1 0 0-1.204.602.602 0 0 0 0 1.204ZM161.091 243.073a.603.603 0 1 0-.001-1.205.603.603 0 0 0 .001 1.205ZM174.332 243.073a.602.602 0 1 0 0-1.204.602.602 0 0 0 0 1.204ZM187.576 243.073a.603.603 0 1 0-.001-1.205.603.603 0 0 0 .001 1.205ZM200.819 243.073a.603.603 0 1 0-.001-1.205.603.603 0 0 0 .001 1.205ZM214.063 243.073a.603.603 0 1 0-.001-1.205.603.603 0 0 0 .001 1.205ZM227.307 243.073a.602.602 0 1 0 0-1.204.602.602 0 0 0 0 1.204ZM240.549 243.073a.603.603 0 1 0-.001-1.205.603.603 0 0 0 .001 1.205ZM253.793 243.073a.603.603 0 1 0-.001-1.205.603.603 0 0 0 .001 1.205ZM267.037 243.073a.602.602 0 1 0 0-1.204.602.602 0 0 0 0 1.204ZM280.279 243.073a.602.602 0 1 0 0-1.204.602.602 0 0 0 0 1.204ZM293.522 243.073a.602.602 0 1 0 0-1.204.602.602 0 0 0 0 1.204ZM306.765 243.073a.602.602 0 1 0 0-1.204.602.602 0 0 0 0 1.204ZM320.01 243.073a.602.602 0 1 0 0-1.204.602.602 0 0 0 0 1.204ZM333.252 243.073a.602.602 0 1 0 0-1.204.602.602 0 0 0 0 1.204ZM346.495 243.073a.602.602 0 1 0 0-1.204.602.602 0 0 0 0 1.204ZM359.737 243.073a.603.603 0 1 0-.001-1.205.603.603 0 0 0 .001 1.205ZM372.983 243.073a.603.603 0 1 0-.001-1.205.603.603 0 0 0 .001 1.205ZM386.225 243.073a.602.602 0 1 0 0-1.204.602.602 0 0 0 0 1.204ZM399.468 243.073a.602.602 0 1 0 0-1.204.602.602 0 0 0 0 1.204ZM412.712 243.073a.603.603 0 1 0-.001-1.205.603.603 0 0 0 .001 1.205ZM425.955 243.073a.603.603 0 1 0-.001-1.205.603.603 0 0 0 .001 1.205ZM439.199 243.073a.603.603 0 1 0-.001-1.205.603.603 0 0 0 .001 1.205ZM134.603 256.316a.602.602 0 1 0 0-1.204.602.602 0 0 0 0 1.204ZM147.844 256.316a.602.602 0 1 0 0-1.204.602.602 0 0 0 0 1.204ZM161.091 256.316a.603.603 0 1 0-.001-1.205.603.603 0 0 0 .001 1.205ZM174.332 256.316a.602.602 0 1 0 0-1.204.602.602 0 0 0 0 1.204ZM187.576 256.316a.603.603 0 1 0-.001-1.205.603.603 0 0 0 .001 1.205ZM200.819 256.316a.603.603 0 1 0-.001-1.205.603.603 0 0 0 .001 1.205ZM214.063 256.316a.603.603 0 1 0-.001-1.205.603.603 0 0 0 .001 1.205ZM227.307 256.316a.602.602 0 1 0 0-1.204.602.602 0 0 0 0 1.204ZM240.549 256.316a.603.603 0 1 0-.001-1.205.603.603 0 0 0 .001 1.205ZM253.793 256.316a.603.603 0 1 0-.001-1.205.603.603 0 0 0 .001 1.205ZM267.037 256.316a.602.602 0 1 0 0-1.204.602.602 0 0 0 0 1.204ZM280.279 256.316a.602.602 0 1 0 0-1.204.602.602 0 0 0 0 1.204ZM293.522 256.316a.602.602 0 1 0 0-1.204.602.602 0 0 0 0 1.204ZM306.765 256.316a.602.602 0 1 0 0-1.204.602.602 0 0 0 0 1.204ZM320.01 256.316a.602.602 0 1 0 0-1.204.602.602 0 0 0 0 1.204ZM333.252 256.316a.602.602 0 1 0 0-1.204.602.602 0 0 0 0 1.204ZM346.495 256.316a.602.602 0 1 0 0-1.204.602.602 0 0 0 0 1.204ZM359.737 256.316a.603.603 0 1 0-.001-1.205.603.603 0 0 0 .001 1.205ZM372.983 256.316a.603.603 0 1 0-.001-1.205.603.603 0 0 0 .001 1.205ZM386.225 256.316a.602.602 0 1 0 0-1.204.602.602 0 0 0 0 1.204ZM399.468 256.316a.602.602 0 1 0 0-1.204.602.602 0 0 0 0 1.204ZM412.712 256.316a.603.603 0 1 0-.001-1.205.603.603 0 0 0 .001 1.205ZM425.955 256.316a.603.603 0 1 0-.001-1.205.603.603 0 0 0 .001 1.205ZM439.199 256.316a.603.603 0 1 0-.001-1.205.603.603 0 0 0 .001 1.205ZM134.603 269.558a.601.601 0 1 0 .001-1.203.601.601 0 0 0-.001 1.203ZM147.844 269.558a.601.601 0 1 0 .001-1.203.601.601 0 0 0-.001 1.203ZM161.091 269.558a.602.602 0 1 0 0-1.204.602.602 0 0 0 0 1.204ZM174.332 269.558a.601.601 0 1 0 .001-1.203.601.601 0 0 0-.001 1.203ZM187.576 269.558a.602.602 0 1 0 0-1.204.602.602 0 0 0 0 1.204ZM200.819 269.558a.602.602 0 1 0 0-1.204.602.602 0 0 0 0 1.204ZM214.063 269.558a.602.602 0 1 0 0-1.204.602.602 0 0 0 0 1.204ZM227.307 269.558a.601.601 0 1 0 .001-1.203.601.601 0 0 0-.001 1.203ZM240.549 269.558a.602.602 0 1 0 0-1.204.602.602 0 0 0 0 1.204ZM253.793 269.558a.602.602 0 1 0 0-1.204.602.602 0 0 0 0 1.204ZM267.037 269.558a.601.601 0 1 0 .001-1.203.601.601 0 0 0-.001 1.203ZM280.279 269.558a.601.601 0 1 0 .001-1.203.601.601 0 0 0-.001 1.203ZM293.522 269.558a.601.601 0 1 0 .001-1.203.601.601 0 0 0-.001 1.203ZM306.765 269.558a.601.601 0 1 0 .001-1.203.601.601 0 0 0-.001 1.203ZM320.01 269.558a.601.601 0 1 0 .001-1.203.601.601 0 0 0-.001 1.203ZM333.252 269.558a.601.601 0 1 0 .001-1.203.601.601 0 0 0-.001 1.203ZM346.495 269.558a.601.601 0 1 0 .001-1.203.601.601 0 0 0-.001 1.203ZM359.737 269.558a.602.602 0 1 0 0-1.204.602.602 0 0 0 0 1.204ZM372.983 269.558a.602.602 0 1 0 0-1.204.602.602 0 0 0 0 1.204ZM386.225 269.558a.601.601 0 1 0 .001-1.203.601.601 0 0 0-.001 1.203ZM399.468 269.558a.601.601 0 1 0 .001-1.203.601.601 0 0 0-.001 1.203ZM412.712 269.558a.602.602 0 1 0 0-1.204.602.602 0 0 0 0 1.204ZM425.955 269.558a.602.602 0 1 0 0-1.204.602.602 0 0 0 0 1.204ZM439.199 269.558a.602.602 0 1 0 0-1.204.602.602 0 0 0 0 1.204ZM134.603 282.813a.601.601 0 1 0 .001-1.203.601.601 0 0 0-.001 1.203ZM147.844 282.813a.601.601 0 1 0 .001-1.203.601.601 0 0 0-.001 1.203ZM161.091 282.813a.602.602 0 1 0 0-1.204.602.602 0 0 0 0 1.204ZM174.332 282.813a.601.601 0 1 0 .001-1.203.601.601 0 0 0-.001 1.203ZM187.576 282.813a.602.602 0 1 0 0-1.204.602.602 0 0 0 0 1.204ZM200.819 282.813a.602.602 0 1 0 0-1.204.602.602 0 0 0 0 1.204ZM214.063 282.813a.602.602 0 1 0 0-1.204.602.602 0 0 0 0 1.204ZM227.307 282.813a.601.601 0 1 0 .001-1.203.601.601 0 0 0-.001 1.203ZM240.549 282.813a.602.602 0 1 0 0-1.204.602.602 0 0 0 0 1.204ZM253.793 282.813a.602.602 0 1 0 0-1.204.602.602 0 0 0 0 1.204ZM267.037 282.813a.601.601 0 1 0 .001-1.203.601.601 0 0 0-.001 1.203ZM280.279 282.813a.601.601 0 1 0 .001-1.203.601.601 0 0 0-.001 1.203ZM293.522 282.813a.601.601 0 1 0 .001-1.203.601.601 0 0 0-.001 1.203ZM306.765 282.813a.601.601 0 1 0 .001-1.203.601.601 0 0 0-.001 1.203ZM320.01 282.813a.601.601 0 1 0 .001-1.203.601.601 0 0 0-.001 1.203ZM333.252 282.813a.601.601 0 1 0 .001-1.203.601.601 0 0 0-.001 1.203ZM346.495 282.813a.601.601 0 1 0 .001-1.203.601.601 0 0 0-.001 1.203ZM359.737 282.813a.602.602 0 1 0 0-1.204.602.602 0 0 0 0 1.204ZM372.983 282.813a.602.602 0 1 0 0-1.204.602.602 0 0 0 0 1.204ZM386.225 282.813a.601.601 0 1 0 .001-1.203.601.601 0 0 0-.001 1.203ZM399.468 282.813a.601.601 0 1 0 .001-1.203.601.601 0 0 0-.001 1.203ZM412.712 282.813a.602.602 0 1 0 0-1.204.602.602 0 0 0 0 1.204ZM425.955 282.813a.602.602 0 1 0 0-1.204.602.602 0 0 0 0 1.204ZM439.199 282.813a.602.602 0 1 0 0-1.204.602.602 0 0 0 0 1.204ZM134.603 296.056a.601.601 0 1 0 .002-1.202.601.601 0 0 0-.002 1.202ZM147.844 296.056a.601.601 0 1 0 .002-1.202.601.601 0 0 0-.002 1.202ZM161.091 296.056a.602.602 0 1 0 0-1.204.602.602 0 0 0 0 1.204ZM174.332 296.056a.601.601 0 1 0 .002-1.202.601.601 0 0 0-.002 1.202ZM187.576 296.056a.602.602 0 1 0 0-1.204.602.602 0 0 0 0 1.204ZM200.819 296.056a.602.602 0 1 0 0-1.204.602.602 0 0 0 0 1.204ZM214.063 296.056a.602.602 0 1 0 0-1.204.602.602 0 0 0 0 1.204ZM227.307 296.056a.601.601 0 1 0 .002-1.202.601.601 0 0 0-.002 1.202ZM240.549 296.056a.602.602 0 1 0 0-1.204.602.602 0 0 0 0 1.204ZM253.793 296.056a.602.602 0 1 0 0-1.204.602.602 0 0 0 0 1.204ZM267.037 296.056a.601.601 0 1 0 .002-1.202.601.601 0 0 0-.002 1.202ZM280.279 296.056a.601.601 0 1 0 .002-1.202.601.601 0 0 0-.002 1.202ZM293.522 296.056a.601.601 0 1 0 .002-1.202.601.601 0 0 0-.002 1.202ZM306.765 296.056a.601.601 0 1 0 .002-1.202.601.601 0 0 0-.002 1.202ZM320.01 296.056a.601.601 0 1 0 .002-1.202.601.601 0 0 0-.002 1.202ZM333.252 296.056a.601.601 0 1 0 .002-1.202.601.601 0 0 0-.002 1.202ZM346.495 296.056a.601.601 0 1 0 .002-1.202.601.601 0 0 0-.002 1.202ZM359.737 296.056a.602.602 0 1 0 0-1.204.602.602 0 0 0 0 1.204ZM372.983 296.056a.602.602 0 1 0 0-1.204.602.602 0 0 0 0 1.204ZM386.225 296.056a.601.601 0 1 0 .002-1.202.601.601 0 0 0-.002 1.202ZM399.468 296.056a.601.601 0 1 0 .002-1.202.601.601 0 0 0-.002 1.202ZM412.712 296.056a.602.602 0 1 0 0-1.204.602.602 0 0 0 0 1.204ZM425.955 296.056a.602.602 0 1 0 0-1.204.602.602 0 0 0 0 1.204ZM439.199 296.056a.602.602 0 1 0 0-1.204.602.602 0 0 0 0 1.204ZM134.603 309.299a.602.602 0 1 0 0-1.204.602.602 0 0 0 0 1.204ZM147.844 309.299a.602.602 0 1 0 0-1.204.602.602 0 0 0 0 1.204ZM161.091 309.299a.603.603 0 1 0-.001-1.205.603.603 0 0 0 .001 1.205ZM174.332 309.299a.602.602 0 1 0 0-1.204.602.602 0 0 0 0 1.204ZM187.576 309.299a.603.603 0 1 0-.001-1.205.603.603 0 0 0 .001 1.205ZM200.819 309.299a.603.603 0 1 0-.001-1.205.603.603 0 0 0 .001 1.205ZM214.063 309.299a.603.603 0 1 0-.001-1.205.603.603 0 0 0 .001 1.205ZM227.307 309.299a.602.602 0 1 0 0-1.204.602.602 0 0 0 0 1.204ZM240.549 309.299a.603.603 0 1 0-.001-1.205.603.603 0 0 0 .001 1.205ZM253.793 309.299a.603.603 0 1 0-.001-1.205.603.603 0 0 0 .001 1.205ZM267.037 309.299a.602.602 0 1 0 0-1.204.602.602 0 0 0 0 1.204ZM280.279 309.299a.602.602 0 1 0 0-1.204.602.602 0 0 0 0 1.204ZM293.522 309.299a.602.602 0 1 0 0-1.204.602.602 0 0 0 0 1.204ZM306.765 309.299a.602.602 0 1 0 0-1.204.602.602 0 0 0 0 1.204ZM320.01 309.299a.602.602 0 1 0 0-1.204.602.602 0 0 0 0 1.204ZM333.252 309.299a.602.602 0 1 0 0-1.204.602.602 0 0 0 0 1.204ZM346.495 309.299a.602.602 0 1 0 0-1.204.602.602 0 0 0 0 1.204ZM359.737 309.299a.603.603 0 1 0-.001-1.205.603.603 0 0 0 .001 1.205ZM372.983 309.299a.603.603 0 1 0-.001-1.205.603.603 0 0 0 .001 1.205ZM386.225 309.299a.602.602 0 1 0 0-1.204.602.602 0 0 0 0 1.204ZM399.468 309.299a.602.602 0 1 0 0-1.204.602.602 0 0 0 0 1.204ZM412.712 309.299a.603.603 0 1 0-.001-1.205.603.603 0 0 0 .001 1.205ZM425.955 309.299a.603.603 0 1 0-.001-1.205.603.603 0 0 0 .001 1.205ZM439.199 309.299a.603.603 0 1 0-.001-1.205.603.603 0 0 0 .001 1.205Z"/></g><path d="M449.294 101.177H123.795v218.365h325.499V101.177Z" stroke="#A3A3A3" stroke-width=".877" stroke-miterlimit="10"/><path d="M286.309 97.577a3.937 3.937 0 1 0 0-7.875 3.937 3.937 0 0 0 0 7.875ZM311.393 334.838a5.357 5.357 0 0 1-5.373 5.339h-55.843a5.34 5.34 0 0 1-5.339-5.339" stroke="#303033" stroke-width=".877" stroke-miterlimit="10"/><path d="M231.082 64.006a12.88 12.88 0 0 0-1.515.098 17.612 17.612 0 0 0-25.64-6.604 17.607 17.607 0 0 0-34.476 6.954 12.842 12.842 0 0 0-5.156 22.063 12.84 12.84 0 0 0 8.472 3.186h58.315a12.845 12.845 0 0 0 11.881-7.929 12.838 12.838 0 0 0 0-9.84 12.846 12.846 0 0 0-11.881-7.928Z" fill="#010104" stroke="#303033" stroke-width=".877" stroke-miterlimit="10"/><path d="M229.57 64.103a17.636 17.636 0 0 0-29.572-2.956 17.638 17.638 0 0 0-3.793 10.924" stroke="#303033" stroke-width=".877" stroke-miterlimit="10"/><path opacity=".15" d="M312.348 271.687h-51.607a25.834 25.834 0 0 1-25.803-25.803v-38.706a25.85 25.85 0 0 1 19.352-24.987v-13.716a25.838 25.838 0 0 1 7.566-18.238 25.837 25.837 0 0 1 18.238-7.566h12.901a25.834 25.834 0 0 1 25.803 25.804v13.716a25.85 25.85 0 0 1 19.353 24.987v38.706a25.834 25.834 0 0 1-25.803 25.803Zm-51.607-77.41a12.914 12.914 0 0 0-12.901 12.901v38.706a12.914 12.914 0 0 0 12.901 12.901h51.607a12.916 12.916 0 0 0 12.901-12.901v-38.706a12.916 12.916 0 0 0-12.901-12.901h-51.607Zm6.451-12.903h38.705v-12.899a12.92 12.92 0 0 0-3.783-9.119 12.92 12.92 0 0 0-9.119-3.783h-12.901a12.916 12.916 0 0 0-12.902 12.902v12.899Zm19.352 64.51a6.454 6.454 0 0 1-6.45-6.452v-8.182a12.9 12.9 0 1 1 12.901 0v8.182a6.451 6.451 0 0 1-6.451 6.452Z" fill="url(#c)"/><path d="M312.112 271.687h-51.607a25.834 25.834 0 0 1-25.803-25.803v-38.706a25.851 25.851 0 0 1 19.353-24.987v-13.716a25.83 25.83 0 0 1 25.803-25.804h12.901a25.837 25.837 0 0 1 18.238 7.566 25.838 25.838 0 0 1 7.566 18.238v13.716a25.85 25.85 0 0 1 19.352 24.987v38.706a25.834 25.834 0 0 1-25.803 25.803Zm-51.607-77.41a12.916 12.916 0 0 0-12.901 12.901v38.706a12.916 12.916 0 0 0 12.901 12.901h51.607a12.914 12.914 0 0 0 12.901-12.901v-38.706a12.914 12.914 0 0 0-12.901-12.901h-51.607Zm6.451-12.903h38.705v-12.899a12.916 12.916 0 0 0-12.902-12.902h-12.901a12.92 12.92 0 0 0-9.119 3.783 12.92 12.92 0 0 0-3.783 9.119v12.899Zm19.353 64.51a6.451 6.451 0 0 1-6.451-6.452v-8.182a12.9 12.9 0 1 1 14.305-21.408 12.9 12.9 0 0 1-1.404 21.408v8.182a6.451 6.451 0 0 1-6.45 6.452Z" stroke="#FC6D26" stroke-width=".877" stroke-miterlimit="10"/><path d="M161.431 258.115c-.506.003-1.012.036-1.515.098a17.608 17.608 0 0 0-11.324-9.108 17.612 17.612 0 0 0-14.316 2.505 17.606 17.606 0 0 0-34.476 6.954 12.842 12.842 0 0 0 3.317 25.248h58.314a12.848 12.848 0 1 0 0-25.697Z" fill="#010104" stroke="#303033" stroke-width=".877" stroke-miterlimit="10"/><path d="M159.919 258.212a17.637 17.637 0 0 0-19.826-9.181 17.635 17.635 0 0 0-13.539 17.149" stroke="#303033" stroke-width=".877" stroke-miterlimit="10"/><path d="M475.792 126.416c-.32.001-.639.022-.956.061a11.092 11.092 0 0 0-7.14-5.742 11.11 11.11 0 0 0-9.025 1.579 11.102 11.102 0 0 0-21.737 4.384 8.1 8.1 0 0 0-5.941 8.877 8.097 8.097 0 0 0 8.032 7.042h36.767a8.106 8.106 0 0 0 5.728-2.372 8.113 8.113 0 0 0 2.372-5.729 8.106 8.106 0 0 0-2.372-5.728 8.106 8.106 0 0 0-5.728-2.372Z" fill="#010104" stroke="#A3A3A3" stroke-width=".877" stroke-miterlimit="10"/><path d="M474.838 126.477a11.11 11.11 0 0 0-12.5-5.789 11.114 11.114 0 0 0-8.536 10.812" fill="#010104"/><path d="M474.838 126.477a11.11 11.11 0 0 0-12.5-5.789 11.114 11.114 0 0 0-8.536 10.812" stroke="#A3A3A3" stroke-width=".877" stroke-miterlimit="10"/><path d="M263.222 56.734a8.115 8.115 0 0 0-.955.062 11.107 11.107 0 0 0-16.166-4.164 11.1 11.1 0 0 0-21.737 4.385 8.095 8.095 0 0 0 2.091 15.919h36.767a8.101 8.101 0 0 0 0-16.202Z" fill="#010104" stroke="#A3A3A3" stroke-width=".877" stroke-miterlimit="10"/><path d="M262.269 56.795a11.12 11.12 0 0 0-18.645-1.863 11.12 11.12 0 0 0-2.392 6.887" fill="#010104"/><path d="M262.269 56.795a11.12 11.12 0 0 0-18.645-1.863 11.12 11.12 0 0 0-2.392 6.887" stroke="#A3A3A3" stroke-width=".877" stroke-miterlimit="10"/><path d="M490.444 236.084H376.059c-5.749 0-10.41 4.66-10.41 10.409 0 5.749 4.661 10.41 10.41 10.41h114.385c5.749 0 10.409-4.661 10.409-10.41 0-5.749-4.66-10.409-10.409-10.409Z" fill="#FC6D26"/><path d="M382.479 245.117c-.068.011-.102.045-.102.113 0 .056.034.09.102.101 1.119.193 1.718.984 1.718 1.787 0 1.311-.836 2.261-2.464 2.261h-3.866v-7.959h3.346c1.65 0 2.623.644 2.623 2.069 0 .712-.532 1.435-1.357 1.628Zm-3.437-2.702v2.396h2.126c.938 0 1.492-.587 1.492-1.277 0-.611-.373-1.119-1.221-1.119h-2.397Zm2.476 5.969c.938 0 1.504-.565 1.504-1.312 0-.712-.577-1.266-1.64-1.266h-2.34v2.578h2.476Zm8.921-1.979c0 .159-.012.272-.034.396h-4.319c.079.927.712 1.673 1.764 1.673.78 0 1.164-.384 1.368-1.051h1.119c-.238 1.074-1.029 2.046-2.51 2.046-1.82 0-2.815-1.345-2.815-2.984 0-1.741 1.131-2.985 2.792-2.985 1.289 0 2.635.848 2.635 2.905Zm-4.296-.508h3.21c-.068-.848-.61-1.447-1.492-1.447-1.085 0-1.56.667-1.718 1.447Zm8.272-1.357h-1.628v3.03c0 .656.135.859.769.859h.859v.95h-.95c-1.198 0-1.763-.441-1.763-1.696v-3.143h-1.086v-.95h1.086v-1.627h1.085v1.627h1.628v.95Zm4.25 0h-1.628v3.03c0 .656.136.859.769.859h.859v.95h-.949c-1.199 0-1.764-.441-1.764-1.696v-3.143h-1.085v-.95h1.085v-1.627h1.085v1.627h1.628v.95Zm5.971 1.865c0 .159-.011.272-.034.396h-4.318c.079.927.712 1.673 1.763 1.673.78 0 1.165-.384 1.368-1.051h1.119c-.237 1.074-1.028 2.046-2.509 2.046-1.82 0-2.815-1.345-2.815-2.984 0-1.741 1.13-2.985 2.792-2.985 1.289 0 2.634.848 2.634 2.905Zm-4.296-.508h3.211c-.068-.848-.611-1.447-1.492-1.447-1.086 0-1.561.667-1.719 1.447Zm6.199-.961c.057.011.09-.045.113-.102.362-.927.69-1.334 2.148-1.334v1.108c-1.684-.113-2.171.486-2.171 2.001v2.77h-1.085v-5.789h1.085v.385c0 .237-.022.418-.124.757-.023.091-.056.181.034.204Zm12.163 4.443-.645-1.9h-3.685l-.644 1.9h-1.312l2.894-7.959h1.809l2.894 7.959h-1.311Zm-4.002-2.894h3.03l-1.312-3.889c-.045-.147-.09-.283-.113-.475-.011-.068-.011-.136-.09-.136s-.079.068-.091.136c-.022.192-.068.328-.113.475l-1.311 3.889Zm5.497 0c0-1.64 1.029-2.985 2.837-2.985 1.583 0 2.488 1.074 2.589 2.261h-1.062c-.102-.656-.6-1.266-1.515-1.266-1.108 0-1.764.916-1.764 1.99 0 1.074.656 1.989 1.764 1.989.915 0 1.413-.61 1.515-1.266h1.062c-.101 1.187-.995 2.261-2.589 2.261-1.774 0-2.837-1.345-2.837-2.984Zm6.149 0c0-1.64 1.029-2.985 2.838-2.985 1.583 0 2.487 1.074 2.589 2.261h-1.063c-.102-.656-.599-1.266-1.515-1.266-1.108 0-1.763.916-1.763 1.99 0 1.074.655 1.989 1.763 1.989.916 0 1.413-.61 1.515-1.266h1.063c-.102 1.187-.995 2.261-2.589 2.261-1.775 0-2.838-1.345-2.838-2.984Zm11.576-.08c0 .159-.011.272-.034.396h-4.318c.079.927.712 1.673 1.763 1.673.78 0 1.165-.384 1.368-1.051h1.119c-.237 1.074-1.028 2.046-2.509 2.046-1.821 0-2.815-1.345-2.815-2.984 0-1.741 1.13-2.985 2.792-2.985 1.289 0 2.634.848 2.634 2.905Zm-4.296-.508h3.211c-.068-.848-.611-1.447-1.493-1.447-1.085 0-1.56.667-1.718 1.447Zm5.019 1.469h1.063c.011.441.373 1.153 1.503 1.153 1.108 0 1.413-.44 1.413-.813 0-.521-.486-.679-1.809-.814-1.514-.159-1.989-.848-1.989-1.606 0-.87.791-1.786 2.374-1.786 1.458 0 2.25.837 2.329 1.922h-1.063c-.034-.373-.283-.972-1.3-.972-.916 0-1.255.373-1.255.757 0 .373.215.622 1.47.758 1.56.169 2.329.621 2.329 1.571 0 1.176-.961 1.933-2.544 1.933-1.571 0-2.465-.825-2.521-2.103Zm5.785 0h1.063c.011.441.373 1.153 1.503 1.153 1.108 0 1.413-.44 1.413-.813 0-.521-.486-.679-1.808-.814-1.515-.159-1.99-.848-1.99-1.606 0-.87.791-1.786 2.374-1.786 1.458 0 2.25.837 2.329 1.922h-1.063c-.034-.373-.283-.972-1.3-.972-.916 0-1.255.373-1.255.757 0 .373.215.622 1.47.758 1.56.169 2.329.621 2.329 1.571 0 1.176-.961 1.933-2.544 1.933-1.571 0-2.465-.825-2.521-2.103Zm9.042-1.967c0-2.249 1.39-4.07 3.844-4.07 2.464 0 3.47 1.708 3.572 3.075h-1.165c-.113-.938-.847-2.08-2.374-2.08-1.718 0-2.701 1.368-2.701 3.075s.983 3.075 2.701 3.075c1.527 0 2.261-1.142 2.374-2.08h1.165c-.102 1.368-1.108 3.075-3.572 3.075-2.454 0-3.844-1.82-3.844-4.07Zm10.94-1.899c1.752 0 2.804 1.345 2.804 2.985 0 1.639-1.052 2.984-2.804 2.984-1.752 0-2.804-1.345-2.804-2.984 0-1.64 1.052-2.985 2.804-2.985Zm0 4.974c1.085 0 1.718-.893 1.718-1.989 0-1.097-.633-1.99-1.718-1.99s-1.718.893-1.718 1.99c0 1.096.633 1.989 1.718 1.989Zm6.805-4.974c1.334 0 2.148.746 2.148 2.442v3.437h-1.085v-3.211c0-1.345-.577-1.718-1.334-1.718-.837 0-1.741.848-1.741 2.227v2.702h-1.086v-5.789h1.086v.385c0 .237-.023.475-.125.769-.034.101-.079.214.012.237.068.023.101-.057.124-.102.226-.565.961-1.379 2.001-1.379Zm6.584 1.04h-1.628v3.03c0 .656.135.859.768.859h.86v.95h-.95c-1.198 0-1.764-.441-1.764-1.696v-3.143h-1.085v-.95h1.085v-1.627h1.086v1.627h1.628v.95Zm2.177.396c.056.011.09-.045.113-.102.362-.927.689-1.334 2.148-1.334v1.108c-1.685-.113-2.171.486-2.171 2.001v2.77h-1.085v-5.789h1.085v.385c0 .237-.022.418-.124.757-.023.091-.057.181.034.204Zm5.245-1.436c1.752 0 2.803 1.345 2.803 2.985 0 1.639-1.051 2.984-2.803 2.984-1.753 0-2.804-1.345-2.804-2.984 0-1.64 1.051-2.985 2.804-2.985Zm0 4.974c1.085 0 1.718-.893 1.718-1.989 0-1.097-.633-1.99-1.718-1.99-1.086 0-1.719.893-1.719 1.99 0 1.096.633 1.989 1.719 1.989Zm3.707-7.235h1.085v8.14h-1.085v-8.14Z" fill="#fff"/><path d="M503.723 208.323c0-5.749-4.66-10.409-10.409-10.409H375.957c-5.749 0-10.409 4.66-10.409 10.409 0 5.749 4.66 10.409 10.409 10.409h117.357c5.749 0 10.409-4.66 10.409-10.409Z" fill="#4B210D"/><path d="M382.377 207.69c-.067.011-.101.045-.101.113 0 .056.034.09.101.102 1.12.192 1.719.983 1.719 1.786 0 1.311-.837 2.261-2.465 2.261h-3.866v-7.959h3.346c1.651 0 2.623.645 2.623 2.069 0 .712-.531 1.436-1.357 1.628Zm-3.436-2.702v2.397h2.125c.938 0 1.492-.588 1.492-1.278 0-.61-.373-1.119-1.221-1.119h-2.396Zm2.475 5.969c.939 0 1.504-.565 1.504-1.311 0-.713-.577-1.266-1.639-1.266h-2.34v2.577h2.475Zm8.921-1.978c0 .158-.011.271-.034.395h-4.319c.08.927.713 1.673 1.764 1.673.78 0 1.164-.384 1.368-1.051h1.119c-.237 1.074-1.029 2.046-2.51 2.046-1.82 0-2.815-1.345-2.815-2.984 0-1.741 1.131-2.985 2.793-2.985 1.289 0 2.634.848 2.634 2.906Zm-4.296-.509h3.211c-.068-.848-.611-1.447-1.493-1.447-1.085 0-1.56.667-1.718 1.447Zm8.272-1.357h-1.628v3.03c0 .656.136.859.769.859h.859v.95h-.95c-1.198 0-1.763-.441-1.763-1.696v-3.143h-1.085v-.949h1.085v-1.628h1.085v1.628h1.628v.949Zm4.25 0h-1.627v3.03c0 .656.135.859.768.859h.859v.95h-.949c-1.198 0-1.764-.441-1.764-1.696v-3.143h-1.085v-.949h1.085v-1.628h1.086v1.628h1.627v.949Zm5.971 1.866c0 .158-.011.271-.033.395h-4.319c.079.927.712 1.673 1.764 1.673.78 0 1.164-.384 1.367-1.051h1.12c-.238 1.074-1.029 2.046-2.51 2.046-1.82 0-2.815-1.345-2.815-2.984 0-1.741 1.13-2.985 2.792-2.985 1.289 0 2.634.848 2.634 2.906Zm-4.296-.509h3.211c-.068-.848-.61-1.447-1.492-1.447-1.085 0-1.56.667-1.719 1.447Zm6.199-.961c.057.011.091-.045.113-.102.362-.927.69-1.334 2.148-1.334v1.108c-1.684-.113-2.17.486-2.17 2.001v2.77h-1.086v-5.788h1.086v.384c0 .237-.023.418-.125.758-.022.09-.056.18.034.203Zm9.857-.396h-1.628v3.03c0 .656.136.859.769.859h.859v.95h-.95c-1.198 0-1.763-.441-1.763-1.696v-3.143h-1.086v-.949h1.086v-1.628h1.085v1.628h1.628v.949Zm4.28-1.04c1.334 0 2.148.746 2.148 2.442v3.437h-1.086v-3.211c0-1.345-.576-1.718-1.334-1.718-.836 0-1.741.848-1.741 2.227v2.702h-1.085v-8.14h1.085v2.736c0 .237-.022.475-.124.769-.034.102-.079.215.011.237.068.023.102-.056.125-.102.226-.565.961-1.379 2.001-1.379Zm3.054 4.262c0-1.322.972-1.729 2.08-1.809 1.04-.079 2.092.046 2.08-.553-.011-.475-.282-.95-1.469-.95-1.018 0-1.368.384-1.447.95h-1.063c.203-1.323 1.221-1.9 2.555-1.9 1.3 0 2.51.452 2.51 2.578v3.301h-1.086v-.554c0-.215.023-.384.125-.678.022-.102.068-.193-.012-.226-.09-.034-.113.056-.135.113-.328.859-1.097 1.435-2.148 1.435-1.097 0-1.99-.723-1.99-1.707Zm4.16-1.503c-.35.429-1.13.441-2.012.565-.701.102-1.063.35-1.063.882 0 .463.385.893 1.323.768.882-.113 1.741-.757 1.752-2.215Zm5.449-2.759c1.334 0 2.148.746 2.148 2.442v3.437h-1.086v-3.211c0-1.345-.576-1.718-1.334-1.718-.836 0-1.741.848-1.741 2.227v2.702h-1.085v-5.788h1.085v.384c0 .237-.022.475-.124.769-.034.102-.079.215.011.237.068.023.102-.056.125-.102.226-.565.961-1.379 2.001-1.379Zm6.673-2.261h1.085v8.14h-1.085v-8.14Zm7.416 5.167c0 .158-.011.271-.034.395h-4.319c.08.927.713 1.673 1.764 1.673.78 0 1.164-.384 1.368-1.051h1.119c-.237 1.074-1.029 2.046-2.51 2.046-1.82 0-2.815-1.345-2.815-2.984 0-1.741 1.131-2.985 2.793-2.985 1.289 0 2.634.848 2.634 2.906Zm-4.296-.509h3.211c-.068-.848-.611-1.447-1.493-1.447-1.085 0-1.56.667-1.718 1.447Zm5.019.543c0-1.73 1.051-2.94 2.555-2.94.927 0 1.582.498 1.944 1.233.011.033.057.146.125.124.113-.034.033-.158 0-.26-.08-.204-.102-.351-.102-.622v-.384h1.085v5.268c0 1.877-1.142 2.781-2.77 2.781-1.707 0-2.555-.871-2.656-1.899h1.085c.068.463.316 1.04 1.56 1.04 1.097 0 1.696-.645 1.696-1.922 0-.249.022-.407.102-.599.045-.102.101-.204 0-.238-.08-.022-.114.068-.125.102-.373.78-1.04 1.255-1.944 1.255-1.504 0-2.555-1.21-2.555-2.939Zm2.803 1.944c1.029 0 1.719-.848 1.719-1.944 0-1.097-.69-1.945-1.719-1.945-1.119 0-1.718.848-1.718 1.945 0 1.096.599 1.944 1.718 1.944Zm3.799-.622c0-1.322.972-1.729 2.08-1.809 1.04-.079 2.091.046 2.08-.553-.011-.475-.283-.95-1.47-.95-1.017 0-1.368.384-1.447.95h-1.062c.203-1.323 1.221-1.9 2.555-1.9 1.3 0 2.509.452 2.509 2.578v3.301h-1.085v-.554c0-.215.023-.384.124-.678.023-.102.068-.193-.011-.226-.09-.034-.113.056-.136.113-.327.859-1.096 1.435-2.148 1.435-1.096 0-1.989-.723-1.989-1.707Zm4.16-1.503c-.35.429-1.13.441-2.012.565-.701.102-1.063.35-1.063.882 0 .463.384.893 1.323.768.882-.113 1.741-.757 1.752-2.215Zm2.077.226c0-1.639 1.029-2.985 2.838-2.985 1.583 0 2.487 1.074 2.589 2.261h-1.063c-.102-.655-.599-1.266-1.515-1.266-1.108 0-1.763.916-1.763 1.99 0 1.074.655 1.989 1.763 1.989.916 0 1.413-.61 1.515-1.266h1.063c-.102 1.187-.995 2.261-2.589 2.261-1.775 0-2.838-1.345-2.838-2.984Zm5.611-2.894h1.176l1.56 4.273c.079.204.091.418.091.61 0 .068 0 .147.09.147s.09-.079.09-.147c0-.192.034-.406.102-.61l1.504-4.273h1.176l-2.51 6.478c-.407 1.062-.972 1.48-2.012 1.48h-.747v-.949h.52c.86 0 1.007-.192 1.176-.611l.158-.384-2.374-6.014Zm9.042-2.171h1.312l2.193 6.761c.045.147.09.305.113.497.011.068.034.113.09.113.057 0 .079-.045.091-.113a2.67 2.67 0 0 1 .113-.497l2.193-6.761h1.311l-2.803 7.959h-1.809l-2.804-7.959Zm10.668 0c2.973 0 3.991 1.877 3.991 3.98 0 2.102-1.086 3.979-3.991 3.979h-2.702v-7.959h2.702Zm.26 6.964c1.877 0 2.555-1.47 2.555-2.984 0-1.515-.678-2.985-2.555-2.985h-1.786v5.969h1.786Zm5.909.995h-1.176v-7.959h1.176v7.959Z" fill="#4D4D4F"/><path d="M532.513 159.917H375.957c-5.749 0-10.409 4.66-10.409 10.409 0 5.749 4.66 10.409 10.409 10.409h156.556c5.749 0 10.409-4.66 10.409-10.409 0-5.749-4.66-10.409-10.409-10.409Z" fill="#1A0C06"/><path d="M377.765 173.355v-7.958h2.962c2.216 0 3.007 1.017 3.007 2.442 0 1.051-.848 1.865-2.058 2.023-.067.012-.113.034-.113.102 0 .079.057.102.125.102 1.108.056 1.413.486 1.571.927l.837 2.362h-1.425l-.486-1.876c-.215-.848-.825-1.108-2.001-1.108h-1.243v2.984h-1.176Zm1.176-3.979h1.684c1.097 0 1.933-.667 1.933-1.515 0-.938-.565-1.469-1.662-1.469h-1.955v2.984Zm8.033 4.07c-1.334 0-2.148-.746-2.148-2.442v-3.437h1.086v3.211c0 1.345.576 1.718 1.334 1.718.836 0 1.741-.848 1.741-2.227v-2.702h1.085v5.788h-1.085v-.384c0-.237.022-.475.124-.769.034-.101.079-.203-.011-.237-.068-.023-.102.056-.125.102-.271.542-.961 1.379-2.001 1.379Zm7.556-5.969c1.334 0 2.148.746 2.148 2.442v3.436h-1.085v-3.21c0-1.345-.577-1.719-1.334-1.719-.837 0-1.741.848-1.741 2.228v2.701h-1.085v-5.788h1.085v.385c0 .237-.023.474-.125.768-.033.102-.079.215.012.238.068.022.102-.057.124-.102.226-.565.961-1.379 2.001-1.379Zm6.425 0c1.334 0 2.148.746 2.148 2.442v3.436h-1.085v-3.21c0-1.345-.576-1.719-1.334-1.719-.836 0-1.741.848-1.741 2.228v2.701h-1.085v-5.788h1.085v.385c0 .237-.022.474-.124.768-.034.102-.079.215.011.238.068.022.102-.057.124-.102.227-.565.961-1.379 2.001-1.379Zm3.283-.995v-1.266h1.176v1.266h-1.176Zm.045 6.873v-5.788h1.086v5.788h-1.086Zm5.538-5.878c1.334 0 2.148.746 2.148 2.442v3.436h-1.086v-3.21c0-1.345-.576-1.719-1.334-1.719-.836 0-1.741.848-1.741 2.228v2.701h-1.085v-5.788h1.085v.385c0 .237-.022.474-.124.768-.034.102-.079.215.011.238.068.022.102-.057.125-.102.226-.565.961-1.379 2.001-1.379Zm3.054 2.939c0-1.73 1.051-2.939 2.555-2.939.927 0 1.583.497 1.944 1.232.012.034.057.147.125.124.113-.033.034-.158 0-.26-.079-.203-.102-.35-.102-.621v-.385h1.085v5.268c0 1.877-1.142 2.781-2.769 2.781-1.707 0-2.555-.87-2.657-1.899h1.085c.068.464.317 1.04 1.56 1.04 1.097 0 1.696-.644 1.696-1.922 0-.248.023-.407.102-.599.045-.101.102-.203 0-.237-.079-.023-.113.068-.125.102-.373.78-1.04 1.254-1.944 1.254-1.504 0-2.555-1.209-2.555-2.939Zm2.804 1.945c1.028 0 1.718-.848 1.718-1.945 0-1.096-.69-1.944-1.718-1.944-1.12 0-1.719.848-1.719 1.944 0 1.097.599 1.945 1.719 1.945Zm9.947-4.884c1.752 0 2.803 1.345 2.803 2.984 0 1.64-1.051 2.985-2.803 2.985s-2.804-1.345-2.804-2.985c0-1.639 1.052-2.984 2.804-2.984Zm0 4.974c1.085 0 1.718-.893 1.718-1.99 0-1.096-.633-1.989-1.718-1.989s-1.719.893-1.719 1.989c0 1.097.634 1.99 1.719 1.99Zm6.805-4.974c1.334 0 2.148.746 2.148 2.442v3.436h-1.086v-3.21c0-1.345-.576-1.719-1.334-1.719-.836 0-1.74.848-1.74 2.228v2.701h-1.086v-5.788h1.086v.385c0 .237-.023.474-.125.768-.034.102-.079.215.011.238.068.022.102-.057.125-.102.226-.565.961-1.379 2.001-1.379Zm5.949-2.08h1.357l1.944 3.312c.068.113.113.271.136.418.011.068.023.113.09.113.068 0 .08-.045.091-.113.022-.147.068-.305.135-.418l1.945-3.312h1.357l-2.94 4.748v3.21h-1.175v-3.21l-2.94-4.748Zm9.492 2.08c1.752 0 2.803 1.345 2.803 2.984 0 1.64-1.051 2.985-2.803 2.985-1.753 0-2.804-1.345-2.804-2.985 0-1.639 1.051-2.984 2.804-2.984Zm0 4.974c1.085 0 1.718-.893 1.718-1.99 0-1.096-.633-1.989-1.718-1.989-1.086 0-1.719.893-1.719 1.989 0 1.097.633 1.99 1.719 1.99Zm5.851.995c-1.334 0-2.148-.746-2.148-2.442v-3.437h1.085v3.211c0 1.345.577 1.718 1.334 1.718.837 0 1.741-.848 1.741-2.227v-2.702h1.085v5.788h-1.085v-.384c0-.237.023-.475.124-.769.034-.101.08-.203-.011-.237-.068-.023-.102.056-.124.102-.272.542-.961 1.379-2.001 1.379Zm5.453-4.533c.056.011.09-.046.113-.102.362-.927.69-1.334 2.148-1.334v1.108c-1.685-.113-2.171.486-2.171 2.001v2.769h-1.085v-5.788h1.085v.385c0 .237-.022.418-.124.757-.023.091-.057.181.034.204Zm7.776 4.442h-1.175v-7.958h1.175v7.958Zm4.55-5.878c1.334 0 2.148.746 2.148 2.442v3.436h-1.086v-3.21c0-1.345-.576-1.719-1.334-1.719-.836 0-1.741.848-1.741 2.228v2.701h-1.085v-5.788h1.085v.385c0 .237-.022.474-.124.768-.034.102-.079.215.011.238.068.022.102-.057.125-.102.226-.565.961-1.379 2.001-1.379Zm5.543-1.312c-.633 0-.768.204-.768.86v.542h1.627v.95h-1.627v4.838h-1.086v-4.838h-.904v-.95h.904v-.655c0-1.255.566-1.696 1.764-1.696h.949v.949h-.859Zm2.941 2.748c.057.011.091-.046.114-.102.361-.927.689-1.334 2.147-1.334v1.108c-1.684-.113-2.17.486-2.17 2.001v2.769h-1.085v-5.788h1.085v.385c0 .237-.023.418-.124.757-.023.091-.057.181.033.204Zm2.53 2.826c0-1.323.972-1.73 2.08-1.809 1.04-.079 2.092.045 2.08-.554-.011-.475-.282-.95-1.469-.95-1.018 0-1.368.385-1.447.95h-1.063c.203-1.323 1.221-1.899 2.555-1.899 1.3 0 2.51.452 2.51 2.577v3.301h-1.086v-.553c0-.215.023-.385.125-.679.022-.102.067-.192-.012-.226-.09-.034-.113.057-.135.113-.328.859-1.097 1.436-2.148 1.436-1.097 0-1.99-.724-1.99-1.707Zm4.16-1.504c-.35.43-1.13.441-2.012.566-.701.101-1.063.35-1.063.881 0 .464.385.893 1.323.769.882-.113 1.741-.757 1.752-2.216Zm1.989 1.108h1.063c.011.441.373 1.153 1.504 1.153 1.107 0 1.413-.441 1.413-.814 0-.52-.486-.678-1.809-.814-1.515-.158-1.99-.848-1.99-1.605 0-.87.792-1.786 2.374-1.786 1.459 0 2.25.836 2.329 1.922h-1.063c-.033-.373-.282-.973-1.3-.973-.915 0-1.255.374-1.255.758 0 .373.215.622 1.47.757 1.56.17 2.329.622 2.329 1.572 0 1.175-.961 1.933-2.544 1.933-1.571 0-2.464-.825-2.521-2.103Zm9.315-2.826h-1.628v3.03c0 .655.135.859.768.859h.86v.949h-.95c-1.198 0-1.764-.44-1.764-1.695v-3.143h-1.085v-.95h1.085v-1.628h1.086v1.628h1.628v.95Zm2.177.396c.056.011.09-.046.113-.102.362-.927.689-1.334 2.148-1.334v1.108c-1.685-.113-2.171.486-2.171 2.001v2.769h-1.085v-5.788h1.085v.385c0 .237-.022.418-.124.757-.023.091-.057.181.034.204Zm5.035 4.533c-1.334 0-2.148-.746-2.148-2.442v-3.437h1.085v3.211c0 1.345.577 1.718 1.334 1.718.837 0 1.741-.848 1.741-2.227v-2.702h1.085v5.788h-1.085v-.384c0-.237.023-.475.124-.769.034-.101.08-.203-.011-.237-.068-.023-.102.056-.124.102-.272.542-.961 1.379-2.001 1.379Zm4.008-2.985c0-1.639 1.029-2.984 2.837-2.984 1.583 0 2.488 1.074 2.589 2.261h-1.062c-.102-.656-.6-1.266-1.515-1.266-1.108 0-1.764.915-1.764 1.989s.656 1.99 1.764 1.99c.915 0 1.413-.61 1.515-1.266h1.062c-.101 1.187-.995 2.261-2.589 2.261-1.774 0-2.837-1.345-2.837-2.985Zm9.403-1.944h-1.628v3.03c0 .655.135.859.768.859h.86v.949h-.95c-1.198 0-1.764-.44-1.764-1.695v-3.143h-1.085v-.95h1.085v-1.628h1.086v1.628h1.628v.95Zm3.061 4.929c-1.334 0-2.148-.746-2.148-2.442v-3.437h1.085v3.211c0 1.345.576 1.718 1.334 1.718.836 0 1.741-.848 1.741-2.227v-2.702h1.085v5.788h-1.085v-.384c0-.237.022-.475.124-.769.034-.101.079-.203-.011-.237-.068-.023-.102.056-.124.102-.272.542-.961 1.379-2.001 1.379Zm5.453-4.533c.056.011.09-.046.113-.102.361-.927.689-1.334 2.148-1.334v1.108c-1.685-.113-2.171.486-2.171 2.001v2.769h-1.085v-5.788h1.085v.385c0 .237-.022.418-.124.757-.023.091-.057.181.034.204Zm7.867 1.469c0 .159-.011.272-.034.396h-4.318c.079.927.712 1.673 1.763 1.673.78 0 1.165-.384 1.368-1.051h1.12c-.238 1.074-1.029 2.046-2.51 2.046-1.82 0-2.815-1.345-2.815-2.985 0-1.741 1.13-2.984 2.792-2.984 1.289 0 2.634.848 2.634 2.905Zm-4.296-.508h3.211c-.068-.848-.61-1.448-1.492-1.448-1.086 0-1.56.667-1.719 1.448Z" fill="#19191B"/></g><rect x=".468" y=".468" width="580.064" height="441.064" rx="13.566" stroke="#fff" stroke-opacity=".15" stroke-width=".936"/><defs><linearGradient id="b" x1="286.544" y1="316.617" x2="286.544" y2="105.549" gradientUnits="userSpaceOnUse"><stop/><stop offset="1" stop-opacity="0"/></linearGradient><linearGradient id="c" x1="286.544" y1="274.612" x2="286.544" y2="176.886" gradientUnits="userSpaceOnUse"><stop stop-color="#010104" stop-opacity="0"/><stop offset=".855" stop-color="#EE6724" stop-opacity=".943"/><stop offset=".906" stop-color="#FC6D26"/></linearGradient><clipPath id="a"><path fill="#fff" transform="translate(38 44)" d="M0 0h505v305H0z"/></clipPath></defs></svg>